<svg width="44" height="44" viewBox="0 0 44 44" fill="none" xmlns="http://www.w3.org/2000/svg">
<path d="M40.4998 25.0833H25.0832V40.5C25.0832 42.1958 23.6957 43.5833 21.9998 43.5833C20.304 43.5833 18.9165 42.1958 18.9165 40.5V25.0833H3.49984C1.804 25.0833 0.416504 23.6958 0.416504 22C0.416504 20.3041 1.804 18.9166 3.49984 18.9166H18.9165V3.49996C18.9165 1.80413 20.304 0.416626 21.9998 0.416626C23.6957 0.416626 25.0832 1.80413 25.0832 3.49996V18.9166H40.4998C42.1957 18.9166 43.5832 20.3041 43.5832 22C43.5832 23.6958 42.1957 25.0833 40.4998 25.0833Z" fill="#F5F5F5"/>
</svg>
