<svg width="23" height="26" viewBox="0 0 23 26" fill="none" xmlns="http://www.w3.org/2000/svg">
<path fill-rule="evenodd" clip-rule="evenodd" d="M-7.04345e-10 11.5C-3.15346e-10 5.14873 5.14873 3.15346e-10 11.5 7.04345e-10C17.8513 1.09334e-09 23 5.14873 23 11.5L22.5 11.5L22.1464 11.8536L22.0858 11.7929L14.459 21.0871C14.4859 21.2011 14.5 21.3188 14.5 21.4375L14.5 24.5625C14.5 25.2994 13.9568 26 13.1667 26L9.83333 26C9.04322 26 8.5 25.2994 8.5 24.5625L8.5 21.4375C8.5 21.3414 8.50923 21.246 8.52704 21.1526L0.910688 11.7964L0.853553 11.8536L0.5 11.5L-7.04345e-10 11.5ZM9.08038 20.2483C9.24613 20.1252 9.44193 20.0408 9.66047 20.0115L7.05573 11.6777L7.03576 11.6857C6.22229 9.65203 3.59447 9.11264 2.04567 10.6614L1.6215 11.0856L9.08038 20.2483ZM10.7017 20L12.2938 20L14.8546 11.4146C13.1931 9.04268 9.59365 9.1015 8.02827 11.5911L10.7017 20ZM13.3339 20.0107C13.5367 20.037 13.72 20.1107 13.878 20.2187L21.3752 11.0823L20.9543 10.6614C19.4055 9.11264 16.7777 9.65203 15.9642 11.6857L15.8328 11.6331L13.3339 20.0107ZM21.6614 9.95433C19.8716 8.16449 16.9965 8.47497 15.5689 10.3659C15.6853 8.68174 15.4054 6.77239 14.7838 5.02032C14.2538 3.52677 13.462 2.11073 12.4185 1.03962C17.3619 1.46801 21.3251 5.32178 21.9222 10.2151L21.6614 9.95433ZM1.07784 10.2151C1.65211 5.50853 5.34049 1.76367 10.02 1.1035C9.00678 2.16671 8.23572 3.55626 7.71624 5.02031C7.16367 6.57762 6.88116 8.25919 6.90688 9.79643C5.37995 8.43196 2.93016 8.36274 1.33856 9.95433L1.07784 10.2151ZM14.5942 9.7129C12.6157 8.20488 9.72705 8.34607 7.91897 10.1365C7.84109 8.64483 8.0965 6.93907 8.65867 5.3547C9.23746 3.72352 10.1233 2.27071 11.25 1.31458C12.3767 2.27071 13.2625 3.72352 13.8413 5.35472C14.351 6.79101 14.6085 8.32705 14.5942 9.7129ZM9.5 21.4375C9.5 21.1389 9.70298 21 9.83333 21L13.1667 21C13.297 21 13.5 21.1389 13.5 21.4375L13.5 24.5625C13.5 24.8611 13.297 25 13.1667 25L9.83333 25C9.70298 25 9.5 24.8611 9.5 24.5625L9.5 21.4375Z" fill="url(#paint0_linear_27_1756)"/>
<defs>
<linearGradient id="paint0_linear_27_1756" x1="11.5" y1="7.04992e-10" x2="11.5" y2="28" gradientUnits="userSpaceOnUse">
<stop stop-color="#FBFF4D"/>
<stop offset="1" stop-color="#FCFF77"/>
</linearGradient>
</defs>
</svg>
