<svg width="27" height="24" viewBox="0 0 27 24" fill="none" xmlns="http://www.w3.org/2000/svg">
<path d="M13.491 0.000267704C7.15693 0.000267703 1.75959 4.00072 0.0391594 9.63016C-0.00851475 9.78636 -0.0126969 9.95259 0.0268226 10.1111C0.0663421 10.2696 0.148516 10.4141 0.263941 10.5295L10.1936 20.4495L10.1936 23.1007C10.1938 23.339 10.2885 23.5678 10.4571 23.7365C10.6258 23.9051 10.8546 23.9998 11.0929 24L15.8893 24C16.1276 23.9998 16.3564 23.9051 16.5251 23.7365C16.6937 23.5678 16.7884 23.339 16.7886 23.1007L16.7886 20.4589L26.7183 10.5292C26.8337 10.4138 26.9159 10.2693 26.9554 10.1108C26.9949 9.95233 26.9907 9.7861 26.943 9.6299C25.2226 4.00077 19.8253 1.21425e-09 13.4912 8.26298e-10L13.491 0.000267704ZM13.491 1.79895C17.5676 1.79895 21.1393 3.68061 23.3458 6.58564C22.8429 6.4169 22.2988 6.32343 21.7156 6.32343C20.0527 6.32343 18.5691 7.03564 17.6315 8.18753C17.3317 7.81743 16.999 7.47784 16.6011 7.19451C15.7829 6.61238 14.7389 6.29538 13.4909 6.29538C12.243 6.29538 11.199 6.61238 10.3808 7.19451C9.98287 7.47784 9.65021 7.81743 9.35034 8.18753C8.41273 7.03558 6.92922 6.32343 5.26623 6.32343C4.68303 6.32343 4.13896 6.4169 3.63611 6.58564C5.84295 3.68061 9.41458 1.79895 13.4908 1.79895L13.491 1.79895ZM13.491 8.09398C14.4493 8.09398 15.0574 8.30685 15.5613 8.66546C16 8.97764 16.3777 9.44206 16.7417 10.0518L15.1304 19.2042L11.8517 19.2042L10.2404 10.0518C10.6044 9.44201 10.982 8.97764 11.4207 8.66546C11.9247 8.30686 12.5327 8.09398 13.491 8.09398ZM5.26628 8.12221C6.83201 8.12221 7.999 8.94876 8.41364 10.0986L9.70647 17.4241L2.10908 9.82669C2.92476 8.88784 3.99577 8.12189 5.26607 8.12189L5.26628 8.12221ZM21.7158 8.12221C22.986 8.12221 24.0571 8.88816 24.8728 9.82701L17.2754 17.4244L18.5682 10.0989C18.9829 8.94913 20.1499 8.12253 21.7156 8.12253L21.7158 8.12221ZM11.9922 21.0024L14.9899 21.0024L14.9899 22.2013L11.9922 22.2013L11.9922 21.0024Z" fill="url(#paint0_linear_57_3066)"/>
<defs>
<linearGradient id="paint0_linear_57_3066" x1="1.5" y1="0.5" x2="24" y2="23.5" gradientUnits="userSpaceOnUse">
<stop stop-color="#FBFF4D"/>
<stop offset="1" stop-color="#FCFF77"/>
</linearGradient>
</defs>
</svg>
